<svg width="40" height="40" viewBox="0 0 40 40" fill="none" xmlns="http://www.w3.org/2000/svg">
<g id="icon_benefits_1" clip-path="url(#clip0_102_1761)">
<path id="Vector" d="M33.3333 3.33337C34.2533 3.33337 35 4.08004 35 5.00004V11.2617L31.6667 14.595V6.66671H8.33333V33.3334H31.6667V28.7367L35 25.4034V35C35 35.92 34.2533 36.6667 33.3333 36.6667H6.66667C5.74667 36.6667 5 35.92 5 35V5.00004C5 4.08004 5.74667 3.33337 6.66667 3.33337H33.3333ZM36.2967 14.68L38.6533 17.0367L25.69 30L23.33 29.9967L23.3333 27.6434L36.2967 14.68ZM21.6667 20V23.3334H13.3333V20H21.6667ZM26.6667 13.3334V16.6667H13.3333V13.3334H26.6667Z" fill="#F4683F"/>
</g>
<defs>
<clipPath id="clip0_102_1761">
<rect width="40" height="40" fill="white"/>
</clipPath>
</defs>
</svg>
